<svg width="23" height="17" viewBox="0 0 23 17" fill="none" xmlns="http://www.w3.org/2000/svg">
<path d="M5.75586 3.5H21.7559L19.2559 10.5H7.75586L5.75586 3.5Z" fill="white"/>
<path fill-rule="evenodd" clip-rule="evenodd" d="M1.35938 0.5C1.02607 0.5 0.755859 0.747535 0.755859 1.05288C0.755859 1.35823 1.02607 1.60577 1.35938 1.60577H2.87984C3.41474 1.60577 3.89472 1.90671 4.08836 2.36349L5.78665 6.36958C5.80248 6.40692 5.82228 6.44211 5.84549 6.47479L7.79734 11.0293C7.81658 11.0742 7.8386 11.1176 7.86316 11.1593L6.78749 13.5294C6.75212 13.6028 6.73248 13.6839 6.73248 13.7692C6.73248 14.0419 6.93315 14.2717 7.2066 14.3414C7.27285 14.3585 7.34015 14.3654 7.40629 14.3631H20.9315C21.2895 14.3631 21.4582 14.0972 21.4582 13.7692C21.4582 13.4413 21.2895 13.1754 20.9315 13.1754L8.27069 13.1654L8.98426 11.7828L9.00413 11.7829H18.6361C19.175 11.7829 19.6578 11.4775 19.8486 11.0158L22.6707 4.18662C22.9918 3.40961 22.3651 2.57845 21.4582 2.57845H6.07748C5.95981 2.57845 5.84689 2.59242 5.74017 2.61844L5.26484 1.3121C5.08838 0.827122 4.59295 0.5 4.03491 0.5H1.35938ZM6.60942 5.00738L6.15777 3.76612H21.4582L18.6361 10.5953L9.00413 10.5953L6.60942 5.00738Z" fill="black"/>
<path d="M8.67069 16.5C9.16962 16.5 9.47069 16.1287 9.47069 15.6707C9.47069 15.2127 9.16962 14.8413 8.67069 14.8413C8.17177 14.8413 7.86316 15.2127 7.86316 15.6707C7.86316 16.1287 8.17177 16.5 8.67069 16.5Z" fill="black"/>
<path d="M19.4436 16.5C19.9425 16.5 20.2436 16.1287 20.2436 15.6707C20.2436 15.2127 19.9425 14.8413 19.4436 14.8413C18.9447 14.8413 18.6361 15.2127 18.6361 15.6707C18.6361 16.1287 18.9447 16.5 19.4436 16.5Z" fill="black"/>
<path fill-rule="evenodd" clip-rule="evenodd" d="M1.35938 0.5C1.02607 0.5 0.755859 0.747535 0.755859 1.05288C0.755859 1.35823 1.02607 1.60577 1.35938 1.60577H2.87984C3.41474 1.60577 3.89472 1.90671 4.08836 2.36349L5.78665 6.36958C5.80248 6.40692 5.82228 6.44211 5.84549 6.47479L7.79734 11.0293C7.81658 11.0742 7.8386 11.1176 7.86316 11.1593L6.78749 13.5294C6.75212 13.6028 6.73248 13.6839 6.73248 13.7692C6.73248 14.0419 6.93315 14.2717 7.2066 14.3414C7.27285 14.3585 7.34015 14.3654 7.40629 14.3631H20.9315C21.2895 14.3631 21.4582 14.0972 21.4582 13.7692C21.4582 13.4413 21.2895 13.1754 20.9315 13.1754L8.27069 13.1654L8.98426 11.7828L9.00413 11.7829H18.6361C19.175 11.7829 19.6578 11.4775 19.8486 11.0158L22.6707 4.18662C22.9918 3.40961 22.3651 2.57845 21.4582 2.57845H6.07748C5.95981 2.57845 5.84689 2.59242 5.74017 2.61844L5.26484 1.3121C5.08838 0.827122 4.59295 0.5 4.03491 0.5H1.35938ZM6.60942 5.00738L6.15777 3.76612H21.4582L18.6361 10.5953L9.00413 10.5953L6.60942 5.00738Z" stroke="black" stroke-width="0.5" stroke-linecap="round"/>
<path d="M8.67069 16.5C9.16962 16.5 9.47069 16.1287 9.47069 15.6707C9.47069 15.2127 9.16962 14.8413 8.67069 14.8413C8.17177 14.8413 7.86316 15.2127 7.86316 15.6707C7.86316 16.1287 8.17177 16.5 8.67069 16.5Z" stroke="black" stroke-width="0.5" stroke-linecap="round"/>
<path d="M19.4436 16.5C19.9425 16.5 20.2436 16.1287 20.2436 15.6707C20.2436 15.2127 19.9425 14.8413 19.4436 14.8413C18.9447 14.8413 18.6361 15.2127 18.6361 15.6707C18.6361 16.1287 18.9447 16.5 19.4436 16.5Z" stroke="black" stroke-width="0.5" stroke-linecap="round"/>
</svg>
