<svg width="123" height="23" viewBox="0 0 123 23" fill="none" xmlns="http://www.w3.org/2000/svg">
<mask id="path-1-outside-1_24_339" maskUnits="userSpaceOnUse" x="0" y="3" width="94" height="17" fill="black">
<rect fill="white" y="3" width="94" height="17"/>
<path d="M5.176 6.39C4.576 6.39 4.03 6.462 3.538 6.606C3.046 6.738 2.602 6.894 2.206 7.074L1.54 5.724C2.032 5.484 2.596 5.298 3.232 5.166C3.868 5.034 4.522 4.968 5.194 4.968C6.226 4.968 7.12 5.13 7.876 5.454C8.644 5.766 9.28 6.21 9.784 6.786C10.288 7.362 10.66 8.04 10.9 8.82C11.152 9.588 11.278 10.434 11.278 11.358C11.278 12.762 11.05 13.974 10.594 14.994C10.138 16.014 9.448 16.8 8.524 17.352C7.612 17.904 6.46 18.18 5.068 18.18C4.324 18.18 3.694 18.138 3.178 18.054C2.662 17.97 2.152 17.838 1.648 17.658V16.254C2.152 16.386 2.662 16.506 3.178 16.614C3.694 16.71 4.24 16.758 4.816 16.758C5.596 16.758 6.274 16.656 6.85 16.452C7.438 16.236 7.93 15.93 8.326 15.534C8.722 15.126 9.022 14.628 9.226 14.04C9.43 13.44 9.544 12.756 9.568 11.988H3.322V10.566H9.55C9.49 9.906 9.346 9.318 9.118 8.802C8.89 8.286 8.584 7.848 8.2 7.488C7.828 7.128 7.384 6.858 6.868 6.678C6.364 6.486 5.8 6.39 5.176 6.39ZM23.0371 18H21.4171V6.57H17.3491C17.2651 7.23 17.1751 7.926 17.0791 8.658C16.9831 9.378 16.8811 10.092 16.7731 10.8C16.6771 11.508 16.5811 12.174 16.4851 12.798C16.3891 13.422 16.2931 13.968 16.1971 14.436C16.0411 15.24 15.8491 15.924 15.6211 16.488C15.3931 17.052 15.0871 17.478 14.7031 17.766C14.3311 18.054 13.8391 18.198 13.2271 18.198C13.0231 18.198 12.8131 18.174 12.5971 18.126C12.3931 18.09 12.2131 18.042 12.0571 17.982V16.632C12.1891 16.692 12.3391 16.746 12.5071 16.794C12.6751 16.83 12.8551 16.848 13.0471 16.848C13.4071 16.848 13.6891 16.704 13.8931 16.416C14.1091 16.116 14.2771 15.75 14.3971 15.318C14.5171 14.874 14.6191 14.436 14.7031 14.004C14.7751 13.656 14.8591 13.194 14.9551 12.618C15.0511 12.03 15.1531 11.346 15.2611 10.566C15.3811 9.786 15.5011 8.94 15.6211 8.028C15.7531 7.104 15.8791 6.144 15.9991 5.148H23.0371V18ZM33.7112 18H26.5292V5.148H33.7112V6.57H28.1492V10.584H33.3872V11.988H28.1492V16.578H33.7112V18ZM45.9092 18H43.9652L38.1512 11.484V18H36.5312V5.148H38.1512V11.376L43.8212 5.148H45.6572L40.0772 11.394L45.9092 18ZM51.7261 18H50.1061V6.57H46.0921V5.148H55.7221V6.57H51.7261V18ZM61.0621 5.148C62.7421 5.148 63.9661 5.478 64.7341 6.138C65.5021 6.798 65.8861 7.728 65.8861 8.928C65.8861 9.456 65.7961 9.966 65.6161 10.458C65.4481 10.938 65.1661 11.37 64.7701 11.754C64.3741 12.138 63.8461 12.444 63.1861 12.672C62.5261 12.888 61.7161 12.996 60.7561 12.996H59.2801V18H57.6601V5.148H61.0621ZM60.9181 6.534H59.2801V11.61H60.5761C61.3921 11.61 62.0701 11.526 62.6101 11.358C63.1501 11.178 63.5521 10.896 63.8161 10.512C64.0801 10.128 64.2121 9.624 64.2121 9C64.2121 8.172 63.9481 7.554 63.4201 7.146C62.8921 6.738 62.0581 6.534 60.9181 6.534ZM79.7725 11.556C79.7725 12.552 79.6465 13.458 79.3945 14.274C79.1425 15.078 78.7645 15.774 78.2605 16.362C77.7685 16.95 77.1505 17.4 76.4065 17.712C75.6745 18.024 74.8225 18.18 73.8505 18.18C72.8425 18.18 71.9665 18.024 71.2225 17.712C70.4785 17.388 69.8605 16.938 69.3685 16.362C68.8765 15.774 68.5105 15.072 68.2705 14.256C68.0305 13.44 67.9105 12.534 67.9105 11.538C67.9105 10.218 68.1265 9.066 68.5585 8.082C68.9905 7.098 69.6445 6.33 70.5205 5.778C71.4085 5.226 72.5245 4.95 73.8685 4.95C75.1525 4.95 76.2325 5.226 77.1085 5.778C77.9845 6.318 78.6445 7.086 79.0885 8.082C79.5445 9.066 79.7725 10.224 79.7725 11.556ZM69.6205 11.556C69.6205 12.636 69.7705 13.566 70.0705 14.346C70.3705 15.126 70.8325 15.726 71.4565 16.146C72.0925 16.566 72.8905 16.776 73.8505 16.776C74.8225 16.776 75.6145 16.566 76.2265 16.146C76.8505 15.726 77.3125 15.126 77.6125 14.346C77.9125 13.566 78.0625 12.636 78.0625 11.556C78.0625 9.936 77.7265 8.67 77.0545 7.758C76.3825 6.834 75.3205 6.372 73.8685 6.372C72.8965 6.372 72.0925 6.582 71.4565 7.002C70.8325 7.41 70.3705 8.004 70.0705 8.784C69.7705 9.552 69.6205 10.476 69.6205 11.556ZM92.449 18H90.829V12.006H84.241V18H82.621V5.148H84.241V10.584H90.829V5.148H92.449V18Z"/>
</mask>
<path d="M5.176 6.39C4.576 6.39 4.03 6.462 3.538 6.606C3.046 6.738 2.602 6.894 2.206 7.074L1.54 5.724C2.032 5.484 2.596 5.298 3.232 5.166C3.868 5.034 4.522 4.968 5.194 4.968C6.226 4.968 7.12 5.13 7.876 5.454C8.644 5.766 9.28 6.21 9.784 6.786C10.288 7.362 10.66 8.04 10.9 8.82C11.152 9.588 11.278 10.434 11.278 11.358C11.278 12.762 11.05 13.974 10.594 14.994C10.138 16.014 9.448 16.8 8.524 17.352C7.612 17.904 6.46 18.18 5.068 18.18C4.324 18.18 3.694 18.138 3.178 18.054C2.662 17.97 2.152 17.838 1.648 17.658V16.254C2.152 16.386 2.662 16.506 3.178 16.614C3.694 16.71 4.24 16.758 4.816 16.758C5.596 16.758 6.274 16.656 6.85 16.452C7.438 16.236 7.93 15.93 8.326 15.534C8.722 15.126 9.022 14.628 9.226 14.04C9.43 13.44 9.544 12.756 9.568 11.988H3.322V10.566H9.55C9.49 9.906 9.346 9.318 9.118 8.802C8.89 8.286 8.584 7.848 8.2 7.488C7.828 7.128 7.384 6.858 6.868 6.678C6.364 6.486 5.8 6.39 5.176 6.39ZM23.0371 18H21.4171V6.57H17.3491C17.2651 7.23 17.1751 7.926 17.0791 8.658C16.9831 9.378 16.8811 10.092 16.7731 10.8C16.6771 11.508 16.5811 12.174 16.4851 12.798C16.3891 13.422 16.2931 13.968 16.1971 14.436C16.0411 15.24 15.8491 15.924 15.6211 16.488C15.3931 17.052 15.0871 17.478 14.7031 17.766C14.3311 18.054 13.8391 18.198 13.2271 18.198C13.0231 18.198 12.8131 18.174 12.5971 18.126C12.3931 18.09 12.2131 18.042 12.0571 17.982V16.632C12.1891 16.692 12.3391 16.746 12.5071 16.794C12.6751 16.83 12.8551 16.848 13.0471 16.848C13.4071 16.848 13.6891 16.704 13.8931 16.416C14.1091 16.116 14.2771 15.75 14.3971 15.318C14.5171 14.874 14.6191 14.436 14.7031 14.004C14.7751 13.656 14.8591 13.194 14.9551 12.618C15.0511 12.03 15.1531 11.346 15.2611 10.566C15.3811 9.786 15.5011 8.94 15.6211 8.028C15.7531 7.104 15.8791 6.144 15.9991 5.148H23.0371V18ZM33.7112 18H26.5292V5.148H33.7112V6.57H28.1492V10.584H33.3872V11.988H28.1492V16.578H33.7112V18ZM45.9092 18H43.9652L38.1512 11.484V18H36.5312V5.148H38.1512V11.376L43.8212 5.148H45.6572L40.0772 11.394L45.9092 18ZM51.7261 18H50.1061V6.57H46.0921V5.148H55.7221V6.57H51.7261V18ZM61.0621 5.148C62.7421 5.148 63.9661 5.478 64.7341 6.138C65.5021 6.798 65.8861 7.728 65.8861 8.928C65.8861 9.456 65.7961 9.966 65.6161 10.458C65.4481 10.938 65.1661 11.37 64.7701 11.754C64.3741 12.138 63.8461 12.444 63.1861 12.672C62.5261 12.888 61.7161 12.996 60.7561 12.996H59.2801V18H57.6601V5.148H61.0621ZM60.9181 6.534H59.2801V11.61H60.5761C61.3921 11.61 62.0701 11.526 62.6101 11.358C63.1501 11.178 63.5521 10.896 63.8161 10.512C64.0801 10.128 64.2121 9.624 64.2121 9C64.2121 8.172 63.9481 7.554 63.4201 7.146C62.8921 6.738 62.0581 6.534 60.9181 6.534ZM79.7725 11.556C79.7725 12.552 79.6465 13.458 79.3945 14.274C79.1425 15.078 78.7645 15.774 78.2605 16.362C77.7685 16.95 77.1505 17.4 76.4065 17.712C75.6745 18.024 74.8225 18.18 73.8505 18.18C72.8425 18.18 71.9665 18.024 71.2225 17.712C70.4785 17.388 69.8605 16.938 69.3685 16.362C68.8765 15.774 68.5105 15.072 68.2705 14.256C68.0305 13.44 67.9105 12.534 67.9105 11.538C67.9105 10.218 68.1265 9.066 68.5585 8.082C68.9905 7.098 69.6445 6.33 70.5205 5.778C71.4085 5.226 72.5245 4.95 73.8685 4.95C75.1525 4.95 76.2325 5.226 77.1085 5.778C77.9845 6.318 78.6445 7.086 79.0885 8.082C79.5445 9.066 79.7725 10.224 79.7725 11.556ZM69.6205 11.556C69.6205 12.636 69.7705 13.566 70.0705 14.346C70.3705 15.126 70.8325 15.726 71.4565 16.146C72.0925 16.566 72.8905 16.776 73.8505 16.776C74.8225 16.776 75.6145 16.566 76.2265 16.146C76.8505 15.726 77.3125 15.126 77.6125 14.346C77.9125 13.566 78.0625 12.636 78.0625 11.556C78.0625 9.936 77.7265 8.67 77.0545 7.758C76.3825 6.834 75.3205 6.372 73.8685 6.372C72.8965 6.372 72.0925 6.582 71.4565 7.002C70.8325 7.41 70.3705 8.004 70.0705 8.784C69.7705 9.552 69.6205 10.476 69.6205 11.556ZM92.449 18H90.829V12.006H84.241V18H82.621V5.148H84.241V10.584H90.829V5.148H92.449V18Z" fill="black"/>
<path d="M3.538 6.606L3.79713 7.57184L3.80805 7.56891L3.8189 7.56574L3.538 6.606ZM2.206 7.074L1.30919 7.51642L1.73782 8.38527L2.6198 7.98437L2.206 7.074ZM1.54 5.724L1.10158 4.82523L0.198794 5.26561L0.643194 6.16642L1.54 5.724ZM3.232 5.166L3.02878 4.18687L3.02878 4.18687L3.232 5.166ZM7.876 5.454L7.48208 6.37314L7.49082 6.37689L7.49962 6.38047L7.876 5.454ZM9.784 6.786L10.5366 6.12749V6.12749L9.784 6.786ZM10.9 8.82L9.94422 9.11408L9.94695 9.12295L9.94984 9.13177L10.9 8.82ZM10.594 14.994L11.5069 15.4021L10.594 14.994ZM8.524 17.352L8.01114 16.4935L8.0062 16.4965L8.524 17.352ZM3.178 18.054L3.33868 17.067L3.178 18.054ZM1.648 17.658H0.648V18.3627L1.31166 18.5997L1.648 17.658ZM1.648 16.254L1.90136 15.2866L0.648 14.9584V16.254H1.648ZM3.178 16.614L2.97314 17.5928L2.98409 17.5951L2.99509 17.5971L3.178 16.614ZM6.85 16.452L7.18387 17.3947L7.19482 17.3907L6.85 16.452ZM8.326 15.534L9.03311 16.2411L9.03838 16.2358L9.04358 16.2305L8.326 15.534ZM9.226 14.04L10.1708 14.3678L10.1728 14.3619L9.226 14.04ZM9.568 11.988L10.5675 12.0192L10.5997 10.988H9.568V11.988ZM3.322 11.988H2.322V12.988H3.322V11.988ZM3.322 10.566V9.566H2.322V10.566H3.322ZM9.55 10.566V11.566H10.645L10.5459 10.4755L9.55 10.566ZM9.118 8.802L10.0327 8.39784V8.39783L9.118 8.802ZM8.2 7.488L7.50458 8.2066L7.51028 8.21211L7.51606 8.21754L8.2 7.488ZM6.868 6.678L6.512 7.61249L6.52525 7.61753L6.53863 7.6222L6.868 6.678ZM5.176 6.39V5.39C4.49668 5.39 3.85432 5.47147 3.2571 5.64626L3.538 6.606L3.8189 7.56574C4.20568 7.45253 4.65532 7.39 5.176 7.39V6.39ZM3.538 6.606L3.27887 5.64016C2.7426 5.78403 2.24575 5.95747 1.7922 6.16363L2.206 7.074L2.6198 7.98437C2.95825 7.83052 3.3494 7.69197 3.79713 7.57184L3.538 6.606ZM2.206 7.074L3.10281 6.63157L2.43681 5.28157L1.54 5.724L0.643194 6.16642L1.30919 7.51642L2.206 7.074ZM1.54 5.724L1.97842 6.62277C2.38331 6.42526 2.866 6.26327 3.43522 6.14513L3.232 5.166L3.02878 4.18687C2.326 4.33273 1.68069 4.54274 1.10158 4.82523L1.54 5.724ZM3.232 5.166L3.43522 6.14513C4.0021 6.02748 4.58792 5.968 5.194 5.968V4.968V3.968C4.45608 3.968 3.7339 4.04052 3.02878 4.18687L3.232 5.166ZM5.194 4.968V5.968C6.12391 5.968 6.87792 6.11422 7.48208 6.37314L7.876 5.454L8.26992 4.53485C7.36208 4.14578 6.32809 3.968 5.194 3.968V4.968ZM7.876 5.454L7.49962 6.38047C8.13529 6.63871 8.63857 6.99553 9.03142 7.4445L9.784 6.786L10.5366 6.12749C9.92143 5.42447 9.15271 4.89329 8.25238 4.52753L7.876 5.454ZM9.784 6.786L9.03142 7.4445C9.43678 7.90776 9.74279 8.45944 9.94422 9.11408L10.9 8.82L11.8558 8.52591C11.5772 7.62056 11.1392 6.81623 10.5366 6.12749L9.784 6.786ZM10.9 8.82L9.94984 9.13177C10.1645 9.7859 10.278 10.525 10.278 11.358H11.278H12.278C12.278 10.343 12.1395 9.3901 11.8502 8.50823L10.9 8.82ZM11.278 11.358H10.278C10.278 12.6563 10.0669 13.7227 9.68108 14.5859L10.594 14.994L11.5069 15.4021C12.0331 14.2253 12.278 12.8677 12.278 11.358H11.278ZM10.594 14.994L9.68108 14.5859C9.30558 15.4258 8.75166 16.0511 8.01115 16.4935L8.524 17.352L9.03686 18.2105C10.1443 17.5489 10.9704 16.6022 11.5069 15.4021L10.594 14.994ZM8.524 17.352L8.0062 16.4965C7.29127 16.9292 6.33203 17.18 5.068 17.18V18.18V19.18C6.58797 19.18 7.93274 18.8788 9.0418 18.2075L8.524 17.352ZM5.068 18.18V17.18C4.35729 17.18 3.78454 17.1396 3.33868 17.067L3.178 18.054L3.01732 19.041C3.60346 19.1364 4.29071 19.18 5.068 19.18V18.18ZM3.178 18.054L3.33868 17.067C2.88388 16.993 2.43263 16.8764 1.98434 16.7163L1.648 17.658L1.31166 18.5997C1.87137 18.7996 2.44012 18.947 3.01732 19.041L3.178 18.054ZM1.648 17.658H2.648V16.254H1.648H0.648V17.658H1.648ZM1.648 16.254L1.39464 17.2214C1.9149 17.3576 2.44107 17.4814 2.97314 17.5928L3.178 16.614L3.38286 15.6352C2.88293 15.5306 2.3891 15.4144 1.90136 15.2866L1.648 16.254ZM3.178 16.614L2.99509 17.5971C3.57692 17.7054 4.18451 17.758 4.816 17.758V16.758V15.758C4.29549 15.758 3.81108 15.7146 3.36091 15.6309L3.178 16.614ZM4.816 16.758V17.758C5.67979 17.758 6.47564 17.6455 7.18385 17.3946L6.85 16.452L6.51615 15.5094C6.07236 15.6665 5.51221 15.758 4.816 15.758V16.758ZM6.85 16.452L7.19482 17.3907C7.90272 17.1306 8.52301 16.7512 9.03311 16.2411L8.326 15.534L7.61889 14.8269C7.337 15.1088 6.97328 15.3414 6.50518 15.5133L6.85 16.452ZM8.326 15.534L9.04358 16.2305C9.55064 15.708 9.92346 15.0806 10.1708 14.3678L9.226 14.04L8.28124 13.7122C8.12054 14.1754 7.89336 14.544 7.60842 14.8375L8.326 15.534ZM9.226 14.04L10.1728 14.3619C10.4146 13.6507 10.5411 12.8659 10.5675 12.0192L9.568 11.988L8.56849 11.9568C8.54695 12.646 8.44543 13.2293 8.27923 13.7181L9.226 14.04ZM9.568 11.988V10.988H3.322V11.988V12.988H9.568V11.988ZM3.322 11.988H4.322V10.566H3.322H2.322V11.988H3.322ZM3.322 10.566V11.566H9.55V10.566V9.566H3.322V10.566ZM9.55 10.566L10.5459 10.4755C10.4777 9.72567 10.3115 9.02892 10.0327 8.39784L9.118 8.802L8.20331 9.20616C8.38046 9.60708 8.50227 10.0863 8.55411 10.6565L9.55 10.566ZM9.118 8.802L10.0327 8.39783C9.75435 7.76791 9.3728 7.21677 8.88394 6.75846L8.2 7.488L7.51606 8.21754C7.7952 8.47923 8.02565 8.80409 8.20331 9.20616L9.118 8.802ZM8.2 7.488L8.89542 6.7694C8.41344 6.30296 7.84251 5.95885 7.19737 5.7338L6.868 6.678L6.53863 7.6222C6.92549 7.75715 7.24256 7.95304 7.50458 8.2066L8.2 7.488ZM6.868 6.678L7.224 5.74351C6.58995 5.50197 5.90285 5.39 5.176 5.39V6.39V7.39C5.69715 7.39 6.13805 7.47003 6.512 7.61249L6.868 6.678ZM23.0371 18V19H24.0371V18H23.0371ZM21.4171 18H20.4171V19H21.4171V18ZM21.4171 6.57H22.4171V5.57H21.4171V6.57ZM17.3491 6.57V5.57H16.4683L16.3571 6.44374L17.3491 6.57ZM17.0791 8.658L18.0703 8.79016L18.0706 8.78803L17.0791 8.658ZM16.7731 10.8L15.7845 10.6492L15.7832 10.6574L15.7821 10.6656L16.7731 10.8ZM16.4851 12.798L15.4967 12.6459L16.4851 12.798ZM16.1971 14.436L15.2174 14.235L15.2154 14.2455L16.1971 14.436ZM15.6211 16.488L16.5482 16.8628L15.6211 16.488ZM14.7031 17.766L14.1031 16.966L14.0969 16.9706L14.0909 16.9753L14.7031 17.766ZM12.5971 18.126L12.814 17.1498L12.7925 17.145L12.7708 17.1412L12.5971 18.126ZM12.0571 17.982H11.0571V18.6688L11.6981 18.9153L12.0571 17.982ZM12.0571 16.632L12.4709 15.7216L11.0571 15.079V16.632H12.0571ZM12.5071 16.794L12.2323 17.7555L12.2647 17.7648L12.2975 17.7718L12.5071 16.794ZM13.8931 16.416L13.0815 15.8317L13.077 15.838L13.8931 16.416ZM14.3971 15.318L15.3606 15.5857L15.3624 15.5789L14.3971 15.318ZM14.7031 14.004L13.7237 13.8014L13.7214 13.8131L14.7031 14.004ZM14.9551 12.618L15.9415 12.7824L15.942 12.7791L14.9551 12.618ZM15.2611 10.566L14.2727 10.4139L14.2715 10.4214L14.2705 10.4288L15.2611 10.566ZM15.6211 8.028L14.6311 7.88657L14.6296 7.89754L15.6211 8.028ZM15.9991 5.148V4.148H15.1123L15.0062 5.02838L15.9991 5.148ZM23.0371 5.148H24.0371V4.148H23.0371V5.148ZM23.0371 18V17H21.4171V18V19H23.0371V18ZM21.4171 18H22.4171V6.57H21.4171H20.4171V18H21.4171ZM21.4171 6.57V5.57H17.3491V6.57V7.57H21.4171V6.57ZM17.3491 6.57L16.3571 6.44374C16.2732 7.10236 16.1834 7.79709 16.0876 8.52796L17.0791 8.658L18.0706 8.78803C18.1667 8.05491 18.2569 7.35764 18.3411 6.69625L17.3491 6.57ZM17.0791 8.658L16.0878 8.52584C15.9927 9.2397 15.8915 9.94749 15.7845 10.6492L16.7731 10.8L17.7616 10.9508C17.8706 10.2365 17.9735 9.51629 18.0703 8.79016L17.0791 8.658ZM16.7731 10.8L15.7821 10.6656C15.6868 11.3685 15.5917 12.0285 15.4967 12.6459L16.4851 12.798L17.4734 12.9501C17.5704 12.3195 17.6673 11.6475 17.764 10.9344L16.7731 10.8ZM16.4851 12.798L15.4967 12.6459C15.4025 13.2584 15.3093 13.7875 15.2175 14.2351L16.1971 14.436L17.1767 14.6369C17.2769 14.1485 17.3757 13.5856 17.4734 12.9501L16.4851 12.798ZM16.1971 14.436L15.2154 14.2455C15.0677 15.0066 14.8913 15.6251 14.694 16.1132L15.6211 16.488L16.5482 16.8628C16.8069 16.2229 17.0144 15.4734 17.1788 14.6265L16.1971 14.436ZM15.6211 16.488L14.694 16.1132C14.5162 16.5529 14.3071 16.8129 14.1031 16.966L14.7031 17.766L15.3031 18.566C15.867 18.1431 16.2699 17.5511 16.5482 16.8628L15.6211 16.488ZM14.7031 17.766L14.0909 16.9753C13.9406 17.0916 13.6845 17.198 13.2271 17.198V18.198V19.198C13.9936 19.198 14.7215 19.0164 15.3152 18.5567L14.7031 17.766ZM13.2271 18.198V17.198C13.1019 17.198 12.9647 17.1833 12.814 17.1498L12.5971 18.126L12.3801 19.1022C12.6614 19.1647 12.9442 19.198 13.2271 19.198V18.198ZM12.5971 18.126L12.7708 17.1412C12.6157 17.1138 12.4999 17.0809 12.416 17.0487L12.0571 17.982L11.6981 18.9153C11.9262 19.0031 12.1704 19.0662 12.4233 19.1108L12.5971 18.126ZM12.0571 17.982H13.0571V16.632H12.0571H11.0571V17.982H12.0571ZM12.0571 16.632L11.6433 17.5424C11.8283 17.6265 12.0261 17.6966 12.2323 17.7555L12.5071 16.794L12.7818 15.8325C12.6521 15.7954 12.5498 15.7575 12.4709 15.7216L12.0571 16.632ZM12.5071 16.794L12.2975 17.7718C12.5419 17.8242 12.7927 17.848 13.0471 17.848V16.848V15.848C12.9174 15.848 12.8082 15.8358 12.7166 15.8162L12.5071 16.794ZM13.0471 16.848V17.848C13.7237 17.848 14.3132 17.5529 14.7091 16.994L13.8931 16.416L13.077 15.838C13.0663 15.8532 13.0604 15.8582 13.0611 15.8576C13.0621 15.8567 13.0666 15.8531 13.0738 15.8494C13.0809 15.8458 13.0851 15.8449 13.0836 15.8452C13.0815 15.8457 13.0703 15.848 13.0471 15.848V16.848ZM13.8931 16.416L14.7046 17.0003C15.0025 16.5866 15.2155 16.1079 15.3606 15.5856L14.3971 15.318L13.4335 15.0504C13.3386 15.3921 13.2157 15.6454 13.0815 15.8317L13.8931 16.416ZM14.3971 15.318L15.3624 15.5789C15.4884 15.1128 15.5959 14.6514 15.6847 14.1949L14.7031 14.004L13.7214 13.8131C13.6422 14.2206 13.5457 14.6352 13.4317 15.0571L14.3971 15.318ZM14.7031 14.004L15.6823 14.2066C15.7581 13.8405 15.8445 13.3642 15.9415 12.7824L14.9551 12.618L13.9687 12.4536C13.8736 13.0238 13.7921 13.4715 13.7238 13.8014L14.7031 14.004ZM14.9551 12.618L15.942 12.7791C16.0396 12.1811 16.1428 11.4888 16.2516 10.7032L15.2611 10.566L14.2705 10.4288C14.1633 11.2032 14.0625 11.8789 13.9681 12.4569L14.9551 12.618ZM15.2611 10.566L16.2494 10.7181C16.3707 9.92981 16.4917 9.07652 16.6125 8.15845L15.6211 8.028L14.6296 7.89754C14.5104 8.80348 14.3914 9.64219 14.2727 10.4139L15.2611 10.566ZM15.6211 8.028L16.611 8.16942C16.7441 7.23765 16.8711 6.27036 16.9919 5.26762L15.9991 5.148L15.0062 5.02838C14.8871 6.01764 14.762 6.97035 14.6311 7.88658L15.6211 8.028ZM15.9991 5.148V6.148H23.0371V5.148V4.148H15.9991V5.148ZM23.0371 5.148H22.0371V18H23.0371H24.0371V5.148H23.0371ZM33.7112 18V19H34.7112V18H33.7112ZM26.5292 18H25.5292V19H26.5292V18ZM26.5292 5.148V4.148H25.5292V5.148H26.5292ZM33.7112 5.148H34.7112V4.148H33.7112V5.148ZM33.7112 6.57V7.57H34.7112V6.57H33.7112ZM28.1492 6.57V5.57H27.1492V6.57H28.1492ZM28.1492 10.584H27.1492V11.584H28.1492V10.584ZM33.3872 10.584H34.3872V9.584H33.3872V10.584ZM33.3872 11.988V12.988H34.3872V11.988H33.3872ZM28.1492 11.988V10.988H27.1492V11.988H28.1492ZM28.1492 16.578H27.1492V17.578H28.1492V16.578ZM33.7112 16.578H34.7112V15.578H33.7112V16.578ZM33.7112 18V17H26.5292V18V19H33.7112V18ZM26.5292 18H27.5292V5.148H26.5292H25.5292V18H26.5292ZM26.5292 5.148V6.148H33.7112V5.148V4.148H26.5292V5.148ZM33.7112 5.148H32.7112V6.57H33.7112H34.7112V5.148H33.7112ZM33.7112 6.57V5.57H28.1492V6.57V7.57H33.7112V6.57ZM28.1492 6.57H27.1492V10.584H28.1492H29.1492V6.57H28.1492ZM28.1492 10.584V11.584H33.3872V10.584V9.584H28.1492V10.584ZM33.3872 10.584H32.3872V11.988H33.3872H34.3872V10.584H33.3872ZM33.3872 11.988V10.988H28.1492V11.988V12.988H33.3872V11.988ZM28.1492 11.988H27.1492V16.578H28.1492H29.1492V11.988H28.1492ZM28.1492 16.578V17.578H33.7112V16.578V15.578H28.1492V16.578ZM33.7112 16.578H32.7112V18H33.7112H34.7112V16.578H33.7112ZM45.9092 18V19H48.1259L46.6588 17.3382L45.9092 18ZM43.9652 18L43.219 18.6658L43.5172 19H43.9652V18ZM38.1512 11.484L38.8973 10.8182L37.1512 8.86124V11.484H38.1512ZM38.1512 18V19H39.1512V18H38.1512ZM36.5312 18H35.5312V19H36.5312V18ZM36.5312 5.148V4.148H35.5312V5.148H36.5312ZM38.1512 5.148H39.1512V4.148H38.1512V5.148ZM38.1512 11.376H37.1512V13.9598L38.8906 12.0492L38.1512 11.376ZM43.8212 5.148V4.148H43.3792L43.0817 4.47479L43.8212 5.148ZM45.6572 5.148L46.4029 5.81423L47.8915 4.148H45.6572V5.148ZM40.0772 11.394L39.3314 10.7278L38.7397 11.3901L39.3275 12.0558L40.0772 11.394ZM45.9092 18V17H43.9652V18V19H45.9092V18ZM43.9652 18L44.7113 17.3342L38.8973 10.8182L38.1512 11.484L37.405 12.1498L43.219 18.6658L43.9652 18ZM38.1512 11.484H37.1512V18H38.1512H39.1512V11.484H38.1512ZM38.1512 18V17H36.5312V18V19H38.1512V18ZM36.5312 18H37.5312V5.148H36.5312H35.5312V18H36.5312ZM36.5312 5.148V6.148H38.1512V5.148V4.148H36.5312V5.148ZM38.1512 5.148H37.1512V11.376H38.1512H39.1512V5.148H38.1512ZM38.1512 11.376L38.8906 12.0492L44.5606 5.8212L43.8212 5.148L43.0817 4.47479L37.4117 10.7028L38.1512 11.376ZM43.8212 5.148V6.148H45.6572V5.148V4.148H43.8212V5.148ZM45.6572 5.148L44.9114 4.48177L39.3314 10.7278L40.0772 11.394L40.8229 12.0602L46.4029 5.81423L45.6572 5.148ZM40.0772 11.394L39.3275 12.0558L45.1595 18.6618L45.9092 18L46.6588 17.3382L40.8268 10.7322L40.0772 11.394ZM51.7261 18V19H52.7261V18H51.7261ZM50.1061 18H49.1061V19H50.1061V18ZM50.1061 6.57H51.1061V5.57H50.1061V6.57ZM46.0921 6.57H45.0921V7.57H46.0921V6.57ZM46.0921 5.148V4.148H45.0921V5.148H46.0921ZM55.7221 5.148H56.7221V4.148H55.7221V5.148ZM55.7221 6.57V7.57H56.7221V6.57H55.7221ZM51.7261 6.57V5.57H50.7261V6.57H51.7261ZM51.7261 18V17H50.1061V18V19H51.7261V18ZM50.1061 18H51.1061V6.57H50.1061H49.1061V18H50.1061ZM50.1061 6.57V5.57H46.0921V6.57V7.57H50.1061V6.57ZM46.0921 6.57H47.0921V5.148H46.0921H45.0921V6.57H46.0921ZM46.0921 5.148V6.148H55.7221V5.148V4.148H46.0921V5.148ZM55.7221 5.148H54.7221V6.57H55.7221H56.7221V5.148H55.7221ZM55.7221 6.57V5.57H51.7261V6.57V7.57H55.7221V6.57ZM51.7261 6.57H50.7261V18H51.7261H52.7261V6.57H51.7261ZM64.7341 6.138L64.0823 6.89642L64.7341 6.138ZM65.6161 10.458L64.6768 10.1144L64.6722 10.1276L65.6161 10.458ZM64.7701 11.754L65.4662 12.4719L64.7701 11.754ZM63.1861 12.672L63.4971 13.6224L63.5049 13.6199L63.5126 13.6172L63.1861 12.672ZM59.2801 12.996V11.996H58.2801V12.996H59.2801ZM59.2801 18V19H60.2801V18H59.2801ZM57.6601 18H56.6601V19H57.6601V18ZM57.6601 5.148V4.148H56.6601V5.148H57.6601ZM59.2801 6.534V5.534H58.2801V6.534H59.2801ZM59.2801 11.61H58.2801V12.61H59.2801V11.61ZM62.6101 11.358L62.9071 12.3129L62.9167 12.3099L62.9263 12.3067L62.6101 11.358ZM63.8161 10.512L62.992 9.94547V9.94547L63.8161 10.512ZM63.4201 7.146L64.0315 6.35471V6.35471L63.4201 7.146ZM61.0621 5.148V6.148C62.6491 6.148 63.5821 6.46659 64.0823 6.89642L64.7341 6.138L65.3858 5.37958C64.35 4.48941 62.835 4.148 61.0621 4.148V5.148ZM64.7341 6.138L64.0823 6.89642C64.5878 7.33086 64.8861 7.96006 64.8861 8.928H65.8861H66.8861C66.8861 7.49594 66.4163 6.26513 65.3858 5.37958L64.7341 6.138ZM65.8861 8.928H64.8861C64.8861 9.33973 64.8163 9.73337 64.6769 10.1144L65.6161 10.458L66.5552 10.8016C66.7758 10.1986 66.8861 9.57227 66.8861 8.928H65.8861ZM65.6161 10.458L64.6722 10.1276C64.5598 10.4488 64.368 10.7509 64.0739 11.0361L64.7701 11.754L65.4662 12.4719C65.9641 11.9891 66.3363 11.4272 66.5599 10.7884L65.6161 10.458ZM64.7701 11.754L64.0739 11.0361C63.8071 11.2949 63.4168 11.5343 62.8595 11.7268L63.1861 12.672L63.5126 13.6172C64.2753 13.3537 64.9411 12.9811 65.4662 12.4719L64.7701 11.754ZM63.1861 12.672L62.875 11.7216C62.3456 11.8949 61.6477 11.996 60.7561 11.996V12.996V13.996C61.7844 13.996 62.7065 13.8811 63.4971 13.6224L63.1861 12.672ZM60.7561 12.996V11.996H59.2801V12.996V13.996H60.7561V12.996ZM59.2801 12.996H58.2801V18H59.2801H60.2801V12.996H59.2801ZM59.2801 18V17H57.6601V18V19H59.2801V18ZM57.6601 18H58.6601V5.148H57.6601H56.6601V18H57.6601ZM57.6601 5.148V6.148H61.0621V5.148V4.148H57.6601V5.148ZM60.9181 6.534V5.534H59.2801V6.534V7.534H60.9181V6.534ZM59.2801 6.534H58.2801V11.61H59.2801H60.2801V6.534H59.2801ZM59.2801 11.61V12.61H60.5761V11.61V10.61H59.2801V11.61ZM60.5761 11.61V12.61C61.4523 12.61 62.2387 12.5208 62.9071 12.3129L62.6101 11.358L62.313 10.4031C61.9014 10.5312 61.3318 10.61 60.5761 10.61V11.61ZM62.6101 11.358L62.9263 12.3067C63.6258 12.0735 64.2276 11.6785 64.6401 11.0785L63.8161 10.512L62.992 9.94547C62.8765 10.1135 62.6743 10.2825 62.2938 10.4093L62.6101 11.358ZM63.8161 10.512L64.6401 11.0785C65.0517 10.4798 65.2121 9.75895 65.2121 9H64.2121H63.2121C63.2121 9.48905 63.1084 9.77617 62.992 9.94547L63.8161 10.512ZM64.2121 9H65.2121C65.2121 7.9448 64.8632 6.99738 64.0315 6.35471L63.4201 7.146L62.8086 7.93728C63.0329 8.11062 63.2121 8.3992 63.2121 9H64.2121ZM63.4201 7.146L64.0315 6.35471C63.2422 5.74479 62.1377 5.534 60.9181 5.534V6.534V7.534C61.9784 7.534 62.5419 7.73121 62.8086 7.93728L63.4201 7.146ZM79.3945 14.274L80.3487 14.5731L80.35 14.5691L79.3945 14.274ZM78.2605 16.362L77.5012 15.7112L77.4936 15.7203L78.2605 16.362ZM76.4065 17.712L76.0198 16.7898L76.0144 16.7921L76.4065 17.712ZM71.2225 17.712L70.8232 18.6289L70.8358 18.6342L71.2225 17.712ZM69.3685 16.362L68.6015 17.0038L68.6081 17.0115L69.3685 16.362ZM68.2705 14.256L67.3111 14.5382L68.2705 14.256ZM68.5585 8.082L69.4741 8.48399L68.5585 8.082ZM70.5205 5.778L69.9926 4.9287L69.9874 4.93196L70.5205 5.778ZM77.1085 5.778L76.5754 6.62408L76.5838 6.62926L77.1085 5.778ZM79.0885 8.082L78.1751 8.48916L78.1781 8.49583L78.1812 8.50246L79.0885 8.082ZM71.4565 16.146L70.8981 16.9756L70.9054 16.9805L71.4565 16.146ZM76.2265 16.146L75.6681 15.3164L75.6607 15.3215L76.2265 16.146ZM77.0545 7.758L76.2458 8.34618L76.2494 8.3512L77.0545 7.758ZM71.4565 7.002L72.0038 7.83898L72.0076 7.83646L71.4565 7.002ZM70.0705 8.784L71.002 9.14785L71.0038 9.14298L70.0705 8.784ZM79.7725 11.556H78.7725C78.7725 12.4682 78.6571 13.2729 78.439 13.9789L79.3945 14.274L80.35 14.5691C80.6359 13.6431 80.7725 12.6358 80.7725 11.556H79.7725ZM79.3945 14.274L78.4403 13.9749C78.2252 14.6612 77.9096 15.2348 77.5012 15.7112L78.2605 16.362L79.0198 17.0128C79.6194 16.3132 80.0598 15.4948 80.3487 14.5731L79.3945 14.274ZM78.2605 16.362L77.4936 15.7203C77.1095 16.1793 76.6244 16.5363 76.0198 16.7898L76.4065 17.712L76.7932 18.6342C77.6766 18.2637 78.4275 17.7207 79.0274 17.0037L78.2605 16.362ZM76.4065 17.712L76.0144 16.7921C75.4306 17.0409 74.7168 17.18 73.8505 17.18V18.18V19.18C74.9282 19.18 75.9184 19.0071 76.7986 18.6319L76.4065 17.712ZM73.8505 18.18V17.18C72.9433 17.18 72.2043 17.0394 71.6092 16.7898L71.2225 17.712L70.8358 18.6342C71.7287 19.0086 72.7417 19.18 73.8505 19.18V18.18ZM71.2225 17.712L71.6218 16.7952C71.0067 16.5273 70.5154 16.1651 70.1289 15.7125L69.3685 16.362L68.6081 17.0115C69.2056 17.7109 69.9503 18.2487 70.8232 18.6288L71.2225 17.712ZM69.3685 16.362L70.1354 15.7203C69.7408 15.2486 69.4354 14.6725 69.2299 13.9738L68.2705 14.256L67.3111 14.5382C67.5856 15.4715 68.0122 16.2994 68.6016 17.0037L69.3685 16.362ZM68.2705 14.256L69.2299 13.9738C69.021 13.2635 68.9105 12.4544 68.9105 11.538H67.9105H66.9105C66.9105 12.6136 67.04 13.6165 67.3111 14.5382L68.2705 14.256ZM67.9105 11.538H68.9105C68.9105 10.3256 69.1089 9.31583 69.4741 8.48399L68.5585 8.082L67.6429 7.68001C67.1441 8.81617 66.9105 10.1104 66.9105 11.538H67.9105ZM68.5585 8.082L69.4741 8.48399C69.8291 7.67554 70.3533 7.06535 71.0536 6.62404L70.5205 5.778L69.9874 4.93196C68.9357 5.59465 68.1519 6.52046 67.6429 7.68001L68.5585 8.082ZM70.5205 5.778L71.0484 6.62729C71.7386 6.19825 72.6586 5.95 73.8685 5.95V4.95V3.95C72.3904 3.95 71.0784 4.25375 69.9926 4.92871L70.5205 5.778ZM73.8685 4.95V5.95C75.0091 5.95 75.8934 6.19429 76.5754 6.62404L77.1085 5.778L77.6416 4.93196C76.5716 4.25771 75.2959 3.95 73.8685 3.95V4.95ZM77.1085 5.778L76.5838 6.62926C77.278 7.05723 77.8079 7.66534 78.1751 8.48916L79.0885 8.082L80.0019 7.67484C79.4811 6.50666 78.691 5.57877 77.6332 4.92674L77.1085 5.778ZM79.0885 8.082L78.1812 8.50246C78.5638 9.32817 78.7725 10.3368 78.7725 11.556H79.7725H80.7725C80.7725 10.1112 80.5252 8.80383 79.9958 7.66154L79.0885 8.082ZM69.6205 11.556H68.6205C68.6205 12.7246 68.7823 13.7824 69.1372 14.705L70.0705 14.346L71.0038 13.987C70.7587 13.3496 70.6205 12.5474 70.6205 11.556H69.6205ZM70.0705 14.346L69.1372 14.705C69.5023 15.6544 70.085 16.4283 70.8981 16.9756L71.4565 16.146L72.0149 15.3164C71.58 15.0237 71.2387 14.5976 71.0038 13.987L70.0705 14.346ZM71.4565 16.146L70.9054 16.9805C71.7427 17.5334 72.7453 17.776 73.8505 17.776V16.776V15.776C73.0357 15.776 72.4423 15.5986 72.0076 15.3115L71.4565 16.146ZM73.8505 16.776V17.776C74.9627 17.776 75.9692 17.5354 76.7923 16.9705L76.2265 16.146L75.6607 15.3215C75.2598 15.5966 74.6824 15.776 73.8505 15.776V16.776ZM76.2265 16.146L76.7849 16.9756C77.598 16.4283 78.1807 15.6544 78.5458 14.705L77.6125 14.346L76.6792 13.987C76.4443 14.5976 76.103 15.0237 75.6681 15.3164L76.2265 16.146ZM77.6125 14.346L78.5458 14.705C78.9007 13.7824 79.0625 12.7246 79.0625 11.556H78.0625H77.0625C77.0625 12.5474 76.9243 13.3496 76.6792 13.987L77.6125 14.346ZM78.0625 11.556H79.0625C79.0625 9.81122 78.7022 8.30846 77.8596 7.1648L77.0545 7.758L76.2494 8.3512C76.7507 9.03154 77.0625 10.0608 77.0625 11.556H78.0625ZM77.0545 7.758L77.8632 7.16983C76.9529 5.91809 75.5443 5.372 73.8685 5.372V6.372V7.372C75.0967 7.372 75.8121 7.74991 76.2458 8.34617L77.0545 7.758ZM73.8685 6.372V5.372C72.7542 5.372 71.7446 5.61338 70.9054 6.16754L71.4565 7.002L72.0076 7.83646C72.4404 7.55062 73.0388 7.372 73.8685 7.372V6.372ZM71.4565 7.002L70.9092 6.16503C70.0886 6.7016 69.503 7.47387 69.1372 8.42502L70.0705 8.784L71.0038 9.14298C71.238 8.53413 71.5764 8.1184 72.0037 7.83897L71.4565 7.002ZM70.0705 8.784L69.139 8.42015C68.7821 9.33389 68.6205 10.3881 68.6205 11.556H69.6205H70.6205C70.6205 10.5639 70.7589 9.77011 71.002 9.14785L70.0705 8.784ZM92.449 18V19H93.449V18H92.449ZM90.829 18H89.829V19H90.829V18ZM90.829 12.006H91.829V11.006H90.829V12.006ZM84.241 12.006V11.006H83.241V12.006H84.241ZM84.241 18V19H85.241V18H84.241ZM82.621 18H81.621V19H82.621V18ZM82.621 5.148V4.148H81.621V5.148H82.621ZM84.241 5.148H85.241V4.148H84.241V5.148ZM84.241 10.584H83.241V11.584H84.241V10.584ZM90.829 10.584V11.584H91.829V10.584H90.829ZM90.829 5.148V4.148H89.829V5.148H90.829ZM92.449 5.148H93.449V4.148H92.449V5.148ZM92.449 18V17H90.829V18V19H92.449V18ZM90.829 18H91.829V12.006H90.829H89.829V18H90.829ZM90.829 12.006V11.006H84.241V12.006V13.006H90.829V12.006ZM84.241 12.006H83.241V18H84.241H85.241V12.006H84.241ZM84.241 18V17H82.621V18V19H84.241V18ZM82.621 18H83.621V5.148H82.621H81.621V18H82.621ZM82.621 5.148V6.148H84.241V5.148V4.148H82.621V5.148ZM84.241 5.148H83.241V10.584H84.241H85.241V5.148H84.241ZM84.241 10.584V11.584H90.829V10.584V9.584H84.241V10.584ZM90.829 10.584H91.829V5.148H90.829H89.829V10.584H90.829ZM90.829 5.148V6.148H92.449V5.148V4.148H90.829V5.148ZM92.449 5.148H91.449V18H92.449H93.449V5.148H92.449Z" fill="black" mask="url(#path-1-outside-1_24_339)"/>
<rect x="102" width="21" height="21" rx="5" fill="black"/>
<line x1="107.75" y1="3" x2="107.75" y2="18.5" stroke="white" stroke-width="1.5"/>
<path d="M111 3C113.8 3 115.967 3.93783 117.437 5.40723C118.899 6.86957 119.625 8.81448 119.625 10.75C119.625 12.6855 118.899 14.6304 117.437 16.0928C115.967 17.5622 113.8 18.5 111 18.5V3ZM112.5 16.8867C114.189 16.6279 115.471 15.9369 116.376 15.0322C117.539 13.8696 118.125 12.3145 118.125 10.75C118.125 9.18552 117.539 7.63043 116.376 6.46777C115.471 5.56306 114.19 4.87109 112.5 4.6123V16.8867Z" fill="white"/>
</svg>
