<svg width="155" height="64" viewBox="0 0 155 64" fill="none" xmlns="http://www.w3.org/2000/svg">
<path d="M19.5 12L131.5 13L112 42L1.5 43.5L0 41.5L19.5 12Z" fill="#2400F0"/>
<path d="M3 41.5L117.5 41L116 43.5H1.5L0 41.5H3Z" fill="#130066"/>
<path d="M36.298 40H118.113L113.611 47.5H29.9292L29 46L36.298 40Z" fill="#D8BF00"/>
<path d="M29 46L114.211 46.5L113.611 47.5H30L29 46Z" fill="#D88C00"/>
<path d="M40.0033 40H42.3742L36 46H33L40.0033 40Z" fill="black"/>
<path d="M33 47.5H36.05V46H33.05L33 47.5Z" fill="black"/>
<circle cx="119.637" cy="36.7413" r="13.3093" transform="rotate(39.5466 119.637 36.7413)" fill="black" stroke="#D8BF00" stroke-width="0.9"/>
<path d="M140.805 12.638L126.803 24.1143L136.527 27.5063L110.499 52.0566C114.951 44.3809 117.621 40.1381 122.073 32.4624L112.986 29.2924L126.219 7.54998L140.805 12.638Z" fill="#D88C00"/>
<path d="M139.184 12.0727L125.183 23.549L134.096 26.6584L110.499 52.0566L121.546 31.3695L113.443 28.5428L126.219 7.55002L139.184 12.0727Z" fill="#D8BF00"/>
<path d="M21.3 30.825C23.74 30.975 25.39 31.05 26.25 31.05C26.48 31.05 26.66 30.985 26.79 30.855C26.93 30.715 27 30.53 27 30.3V28.875H23.01V26.775H27V25.5C27 24.9 26.7 24.6 26.1 24.6H21.45V22.5H26.7C27.75 22.5 28.51 22.74 28.98 23.22C29.46 23.69 29.7 24.45 29.7 25.5V30.3C29.7 31.28 29.47 32 29.01 32.46C28.55 32.92 27.83 33.15 26.85 33.15C25.35 33.15 23.5 33.05 21.3 32.85V30.825ZM34.3518 30.825C34.3018 31.545 34.0718 32.115 33.6618 32.535C33.2518 32.945 32.7468 33.15 32.1468 33.15C31.5468 33.15 30.9818 33.1 30.4518 33V30.975H31.1268C31.3168 30.975 31.4718 30.91 31.5918 30.78C31.7218 30.65 31.7918 30.49 31.8018 30.3L32.2518 22.5H40.5768V33H37.8768V24.6H34.7268L34.3518 30.825ZM50.7035 33H42.3785V22.5H50.7035V24.6H45.0785V26.625H49.5035V28.725H45.0785V30.9H50.7035V33ZM59.55 22.35C59.8 22.35 60.25 22.4 60.9 22.5V24.525H60.3C60.15 24.525 60.015 24.575 59.895 24.675C59.775 24.765 59.685 24.865 59.625 24.975L58.2 27.675L61.125 33H58.275L55.95 28.725H54.6V33H51.9V22.5H54.6V26.625H55.95L57.45 23.775C57.67 23.355 57.94 23.015 58.26 22.755C58.59 22.485 59.02 22.35 59.55 22.35ZM67.1221 33H64.4221V24.6H61.2721V22.5H70.2721V24.6H67.1221V33ZM71.3238 22.5H77.6238C78.6738 22.5 79.4338 22.74 79.9038 23.22C80.3838 23.69 80.6238 24.45 80.6238 25.5V27C80.6238 28.05 80.3838 28.815 79.9038 29.295C79.4338 29.765 78.6738 30 77.6238 30H74.0238V33H71.3238V22.5ZM77.9238 25.5C77.9238 24.9 77.6238 24.6 77.0238 24.6H74.0238V27.9H77.0238C77.6238 27.9 77.9238 27.6 77.9238 27V25.5ZM88.7232 25.35C88.7232 24.75 88.4232 24.45 87.8232 24.45H85.2732C84.6732 24.45 84.3732 24.75 84.3732 25.35V30.15C84.3732 30.75 84.6732 31.05 85.2732 31.05H87.8232C88.4232 31.05 88.7232 30.75 88.7232 30.15V25.35ZM91.4232 30.15C91.4232 31.2 91.1832 31.965 90.7032 32.445C90.2332 32.915 89.4732 33.15 88.4232 33.15H84.6732C83.6232 33.15 82.8582 32.915 82.3782 32.445C81.9082 31.965 81.6732 31.2 81.6732 30.15V25.35C81.6732 24.3 81.9082 23.54 82.3782 23.07C82.8582 22.59 83.6232 22.35 84.6732 22.35H88.4232C89.4732 22.35 90.2332 22.59 90.7032 23.07C91.1832 23.54 91.4232 24.3 91.4232 25.35V30.15ZM102.08 33H99.3803V28.725H95.6303V33H92.9303V22.5H95.6303V26.625H99.3803V22.5H102.08V33Z" fill="white"/>
<path d="M45.3 43.05L44.6 44.3H43.9L43.2 43.05V45H42.3V41.5H43.25L44.25 43.35L45.25 41.5H46.2V45H45.3V43.05ZM47.427 45H46.452L47.777 41.5H48.777L50.102 45H49.127L48.902 44.375H47.652L47.427 45ZM47.877 43.725H48.677L48.277 42.55L47.877 43.725ZM51.2518 45H50.3518V41.5H53.0768V42.2H51.2518V45ZM53.4523 45H52.4773L53.8023 41.5H54.8023L56.1273 45H55.1523L54.9273 44.375H53.6773L53.4523 45ZM53.9023 43.725H54.7023L54.3023 42.55L53.9023 43.725ZM56.1771 44.275C57.0271 44.325 57.6271 44.35 57.9771 44.35C58.0538 44.35 58.1138 44.3283 58.1571 44.285C58.2038 44.2383 58.2271 44.1767 58.2271 44.1V43.9C58.2271 43.7 58.1271 43.6 57.9271 43.6H56.7271V42.9H57.8271C58.0271 42.9 58.1271 42.8 58.1271 42.6V42.5C58.1271 42.3 58.0271 42.2 57.8271 42.2H56.2271V41.5H58.0771C58.4038 41.5 58.6438 41.575 58.7971 41.725C58.9505 41.8717 59.0271 42.0967 59.0271 42.4C59.0271 42.6 58.9805 42.7633 58.8871 42.89C58.7971 43.0133 58.6771 43.1 58.5271 43.15C58.7971 43.2233 58.9805 43.4033 59.0771 43.69C59.1105 43.7933 59.1271 43.9133 59.1271 44.05V44.1C59.1271 44.4267 59.0505 44.6667 58.8971 44.82C58.7438 44.9733 58.5038 45.05 58.1771 45.05C57.6205 45.05 56.9538 45.0167 56.1771 44.95V44.275ZM62.6254 45H61.7254V42.85L60.5254 45H59.5754V41.5H60.4754V43.65L61.6754 41.5H62.6254V45ZM66.2777 45H65.3777V43.575H64.1277V45H63.2277V41.5H64.1277V42.875H65.3777V41.5H66.2777V45ZM68.1791 44.275C68.9924 44.325 69.5424 44.35 69.8291 44.35C69.9058 44.35 69.9658 44.3283 70.0091 44.285C70.0558 44.2383 70.0791 44.1767 70.0791 44.1V43.625H68.7491V42.925H70.0791V42.5C70.0791 42.3 69.9791 42.2 69.7791 42.2H68.2291V41.5H69.9791C70.3291 41.5 70.5824 41.58 70.7391 41.74C70.8991 41.8967 70.9791 42.15 70.9791 42.5V44.1C70.9791 44.4267 70.9024 44.6667 70.7491 44.82C70.5958 44.9733 70.3558 45.05 70.0291 45.05C69.5291 45.05 68.9124 45.0167 68.1791 44.95V44.275ZM72.5297 44.275C72.513 44.515 72.4364 44.705 72.2997 44.845C72.163 44.9817 71.9947 45.05 71.7947 45.05C71.5947 45.05 71.4064 45.0333 71.2297 45V44.325H71.4547C71.518 44.325 71.5697 44.3033 71.6097 44.26C71.653 44.2167 71.6764 44.1633 71.6797 44.1L71.8297 41.5H74.6047V45H73.7047V42.2H72.6547L72.5297 44.275ZM77.9803 45H75.2053V41.5H77.9803V42.2H76.1053V42.875H77.5803V43.575H76.1053V44.3H77.9803V45ZM80.9291 41.45C81.0124 41.45 81.1624 41.4667 81.3791 41.5V42.175H81.1791C81.1291 42.175 81.0841 42.1917 81.0441 42.225C81.0041 42.255 80.9741 42.2883 80.9541 42.325L80.4791 43.225L81.4541 45H80.5041L79.7291 43.575H79.2791V45H78.3791V41.5H79.2791V42.875H79.7291L80.2291 41.925C80.3024 41.785 80.3924 41.6717 80.4991 41.585C80.6091 41.495 80.7524 41.45 80.9291 41.45ZM83.4531 45H82.5531V42.2H81.5031V41.5H84.5031V42.2H83.4531V45ZM84.8537 41.5H86.9537C87.3037 41.5 87.557 41.58 87.7137 41.74C87.8737 41.8967 87.9537 42.15 87.9537 42.5V43C87.9537 43.35 87.8737 43.605 87.7137 43.765C87.557 43.9217 87.3037 44 86.9537 44H85.7537V45H84.8537V41.5ZM87.0537 42.5C87.0537 42.3 86.9537 42.2 86.7537 42.2H85.7537V43.3H86.7537C86.9537 43.3 87.0537 43.2 87.0537 43V42.5ZM90.6535 42.45C90.6535 42.25 90.5535 42.15 90.3535 42.15H89.5035C89.3035 42.15 89.2035 42.25 89.2035 42.45V44.05C89.2035 44.25 89.3035 44.35 89.5035 44.35H90.3535C90.5535 44.35 90.6535 44.25 90.6535 44.05V42.45ZM91.5535 44.05C91.5535 44.4 91.4735 44.655 91.3135 44.815C91.1568 44.9717 90.9035 45.05 90.5535 45.05H89.3035C88.9535 45.05 88.6985 44.9717 88.5385 44.815C88.3818 44.655 88.3035 44.4 88.3035 44.05V42.45C88.3035 42.1 88.3818 41.8467 88.5385 41.69C88.6985 41.53 88.9535 41.45 89.3035 41.45H90.5535C90.9035 41.45 91.1568 41.53 91.3135 41.69C91.4735 41.8467 91.5535 42.1 91.5535 42.45V44.05ZM95.1059 45H94.2059V43.575H92.9559V45H92.0559V41.5H92.9559V42.875H94.2059V41.5H95.1059V45ZM98.7582 45H97.8582V42.85L96.6582 45H95.7082V41.5H96.6082V43.65L97.8082 41.5H98.7582V45ZM101.911 41.45C101.994 41.45 102.144 41.4667 102.361 41.5V42.175H102.161C102.111 42.175 102.066 42.1917 102.026 42.225C101.986 42.255 101.956 42.2883 101.936 42.325L101.461 43.225L102.436 45H101.486L100.711 43.575H100.261V45H99.3605V41.5H100.261V42.875H100.711L101.211 41.925C101.284 41.785 101.374 41.6717 101.481 41.585C101.591 41.495 101.734 41.45 101.911 41.45ZM105.785 45H104.885V42.85L103.685 45H102.735V41.5H103.635V43.65L104.835 41.5H105.785V45Z" fill="black"/>
</svg>
