<svg width="18" height="25" viewBox="0 0 18 25" fill="none" xmlns="http://www.w3.org/2000/svg">
<path d="M15.252 14.7835C15.252 15.9669 13.9883 17.6406 13.252 17.6406C12.5156 17.6406 11.252 15.9669 11.252 14.7835C11.252 13.6 12.5156 12.6406 13.252 12.6406C13.9883 12.6406 15.252 13.6 15.252 14.7835Z" fill="white"/>
<path d="M6.25195 7.21205C6.25195 8.63221 4.98833 10.6406 4.25195 10.6406C3.51557 10.6406 2.25195 8.63221 2.25195 7.21205C2.25195 5.79189 3.51557 4.64062 4.25195 4.64062C4.98833 4.64062 6.25195 5.79189 6.25195 7.21205Z" fill="white"/>
<path d="M3.25195 18.6406L11.252 4.64062H14.252L6.45195 18.6406H3.25195ZM7.45195 9.34062C7.45195 10.1406 7.23195 10.7606 6.79195 11.2006C6.36529 11.6273 5.75195 11.8406 4.95195 11.8406H3.15195C2.35195 11.8406 1.73195 11.6273 1.29195 11.2006C0.865286 10.7606 0.651953 10.1406 0.651953 9.34062V6.94062C0.651953 6.14062 0.865286 5.52729 1.29195 5.10062C1.73195 4.66062 2.35195 4.44062 3.15195 4.44062H4.95195C5.75195 4.44062 6.36529 4.66062 6.79195 5.10062C7.23195 5.52729 7.45195 6.14062 7.45195 6.94062V9.34062ZM5.05195 6.94062C5.05195 6.47396 4.81862 6.24062 4.35195 6.24062H3.75195C3.28529 6.24062 3.05195 6.47396 3.05195 6.94062V9.34062C3.05195 9.80729 3.28529 10.0406 3.75195 10.0406H4.35195C4.81862 10.0406 5.05195 9.80729 5.05195 9.34062V6.94062ZM17.052 16.3406C17.052 17.1406 16.832 17.7606 16.392 18.2006C15.9653 18.6273 15.352 18.8406 14.552 18.8406H12.752C11.952 18.8406 11.332 18.6273 10.892 18.2006C10.4653 17.7606 10.252 17.1406 10.252 16.3406V13.9406C10.252 13.1406 10.4653 12.5273 10.892 12.1006C11.332 11.6606 11.952 11.4406 12.752 11.4406H14.552C15.352 11.4406 15.9653 11.6606 16.392 12.1006C16.832 12.5273 17.052 13.1406 17.052 13.9406V16.3406ZM14.652 13.9406C14.652 13.474 14.4186 13.2406 13.952 13.2406H13.352C12.8853 13.2406 12.652 13.474 12.652 13.9406V16.3406C12.652 16.8073 12.8853 17.0406 13.352 17.0406H13.952C14.4186 17.0406 14.652 16.8073 14.652 16.3406V13.9406Z" fill="black"/>
</svg>
