<svg width="34" height="34" viewBox="0 0 34 34" fill="none" xmlns="http://www.w3.org/2000/svg">
<g clip-path="url(#clip0_10_118)">
<circle cx="20.4662" cy="17.0951" r="10.9545" fill="white"/>
<path fill-rule="evenodd" clip-rule="evenodd" d="M31.5117 17.1406C31.5117 20.058 30.3528 22.8559 28.2899 24.9188C26.227 26.9817 23.4291 28.1406 20.5117 28.1406C17.5943 28.1406 14.7964 26.9817 12.7335 24.9188C10.6706 22.8559 9.51172 20.058 9.51172 17.1406C9.51172 14.2232 10.6706 11.4254 12.7335 9.36245C14.7964 7.29955 17.5943 6.14063 20.5117 6.14062C23.4291 6.14063 26.227 7.29955 28.2899 9.36245C30.3528 11.4254 31.5117 14.2232 31.5117 17.1406ZM23.6546 13.9978C23.6546 14.8313 23.3235 15.6307 22.7341 16.2201C22.1447 16.8095 21.3453 17.1406 20.5117 17.1406C19.6782 17.1406 18.8788 16.8095 18.2894 16.2201C17.7 15.6307 17.3689 14.8313 17.3689 13.9978C17.3689 13.1642 17.7 12.3648 18.2894 11.7754C18.8788 11.186 19.6782 10.8549 20.5117 10.8549C21.3453 10.8549 22.1447 11.186 22.7341 11.7754C23.3235 12.3648 23.6546 13.1642 23.6546 13.9978ZM20.5117 18.7121C19.1514 18.7112 17.8142 19.0637 16.6311 19.7351C15.4479 20.4064 14.4595 21.3735 13.7624 22.5416C14.5716 23.5543 15.5986 24.3717 16.767 24.9329C17.9355 25.4942 19.2154 25.7849 20.5117 25.7835C21.8077 25.7847 23.0873 25.4938 24.2555 24.9326C25.4237 24.3713 26.4504 23.5541 27.2594 22.5416C26.5627 21.3736 25.5744 20.4066 24.3916 19.7352C23.2087 19.0639 21.8718 18.7114 20.5117 18.7121Z" fill="black"/>
</g>
<defs>
<clipPath id="clip0_10_118">
<rect width="33" height="33" fill="white" transform="translate(0.511719 0.140625)"/>
</clipPath>
</defs>
</svg>
